<svg xmlns="http://www.w3.org/2000/svg" width="64" height="64" viewBox="0 0 64 64">
  <g transform="rotate(-45 32 32)">
    <circle cx="32" cy="18" r="0.1" fill="none"/>

    <path d="M27 43 L32 62 L37 43 Z" fill="#FF4500" opacity="0.4">
      <animate attributeName="opacity" values="0.4;0.1;0.4" dur="0.15s" repeatCount="indefinite" />
    </path>
    
    <path d="M29 43 L32 58 L35 43 Z" fill="#00FFFF">
      <animate attributeName="fill" values="#00FFFF;#FFD700;#00FFFF" dur="0.2s" repeatCount="indefinite" />
      <animate attributeName="d" values="M29 43 L32 58 L35 43 Z; M29 43 L32 52 L35 43 Z; M29 43 L32 58 L35 43 Z" dur="0.1s" repeatCount="indefinite" />
    </path>

    <path d="M26 36 L17 48 L27 48" fill="#DC143C" stroke="#DC143C" stroke-width="0.5"/>
    <path d="M38 36 L47 48 L37 48" fill="#DC143C" stroke="#DC143C" stroke-width="0.5"/>

    <path d="M32 18 C32 18 26 25 26 35 C26 42 26 43 27 43 L37 43 C38 43 38 42 38 35 C38 25 32 18 32 18 Z" fill="white" stroke="white" stroke-width="1"/>
    <path d="M27 39 L37 39 V43 H27 V39 Z" fill="#DC143C"/>
    
    <circle cx="32" cy="28" r="3.5" fill="#00FFFF" stroke="#111" stroke-width="0.8"/>
    <circle cx="32" cy="28" r="2" fill="#000000"/>
  </g>
</svg>
